<svg width="800" height="800" viewBox="0 0 800 800" fill="none" xmlns="http://www.w3.org/2000/svg">
<rect width="800" height="800" fill="#222831"/>
<path d="M366.667 366.667H0V0H366.667V366.667ZM800 366.667H433.333V0H800V366.667ZM366.667 800H0V433.333H366.667V800ZM800 800H433.333V433.333H800V800Z" fill="#222831"/>
<path d="M168.208 168.208H0V0H168.208V168.208ZM367 168.208H198.792V0H367V168.208ZM168.208 367H0V198.792H168.208V367ZM367 367H198.792V198.792H367V367Z" fill="#F96D00"/>
<path d="M601.208 168.208H433V0H601.208V168.208ZM800 168.208H631.792V0H800V168.208ZM601.208 367H433V198.792H601.208V367ZM800 367H631.792V198.792H800V367Z" fill="#F96D00"/>
<path d="M168.208 601.208H0V433H168.208V601.208ZM367 601.208H198.792V433H367V601.208ZM168.208 800H0V631.792H168.208V800ZM367 800H198.792V631.792H367V800Z" fill="#F96D00"/>
<path d="M601.208 601.208H433V433H601.208V601.208ZM800 601.208H631.792V433H800V601.208ZM601.208 800H433V631.792H601.208V800ZM800 800H631.792V631.792H800V800Z" fill="#F96D00"/>
<rect opacity="0.98" x="167" y="167" width="466" height="466" fill="#222831"/>
<path d="M254.404 499V468.385H305.527V327.613L256.016 358.521V326.148L307.725 292.604H346.689V468.385H394.004V499H254.404ZM560.996 430.299C560.996 452.174 554.16 469.605 540.488 482.594C526.914 495.484 508.262 501.93 484.531 501.93C463.828 501.93 447.227 497.291 434.727 488.014C422.324 478.639 414.658 465.113 411.729 447.438L452.891 444.068C455.039 452.857 458.848 459.254 464.316 463.258C469.785 467.262 476.67 469.264 484.971 469.264C495.225 469.264 503.379 465.992 509.434 459.449C515.586 452.906 518.662 443.482 518.662 431.178C518.662 420.338 515.781 411.695 510.02 405.25C504.258 398.707 496.201 395.436 485.85 395.436C474.424 395.436 465.098 399.879 457.871 408.766H417.734L424.912 292.604H548.984V323.219H462.266L458.896 375.367C468.857 366.578 481.309 362.184 496.25 362.184C515.879 362.184 531.553 368.287 543.271 380.494C555.088 392.701 560.996 409.303 560.996 430.299Z" fill="#F96D00"/>
</svg>
